<mxfile host="Electron" modified="2023-04-18T15:18:34.239Z" agent="Mozilla/5.0 (Macintosh; Intel Mac OS X 10_15_7) AppleWebKit/537.36 (KHTML, like Gecko) draw.io/21.1.2 Chrome/106.0.5249.199 Electron/21.4.3 Safari/537.36" etag="cSCcSHXf_gRq8GPTsx8B" version="21.1.2" type="device">
  <diagram name="Page-1" id="mnjhIYvdUEs-8AVQdmBZ">
    <mxGraphModel dx="954" dy="699" grid="1" gridSize="10" guides="1" tooltips="1" connect="1" arrows="1" fold="1" page="1" pageScale="1" pageWidth="827" pageHeight="1169" math="0" shadow="0">
      <root>
        <mxCell id="0" />
        <mxCell id="1" parent="0" />
        <mxCell id="BA992W2fOOnN_QsH236t-8" value="" style="rounded=0;orthogonalLoop=1;jettySize=auto;html=1;fontFamily=Ubuntu Mono;fontSize=20;endArrow=none;endFill=0;strokeWidth=2;" parent="1" source="BA992W2fOOnN_QsH236t-1" target="BA992W2fOOnN_QsH236t-2" edge="1">
          <mxGeometry relative="1" as="geometry" />
        </mxCell>
        <mxCell id="BA992W2fOOnN_QsH236t-1" value="Books" style="whiteSpace=wrap;html=1;fontSize=25;fontFamily=Ubuntu Mono;fillColor=#E6E6E6;fillStyle=solid;strokeWidth=3;" parent="1" vertex="1">
          <mxGeometry x="240" y="240" width="120" height="40" as="geometry" />
        </mxCell>
        <mxCell id="BA992W2fOOnN_QsH236t-2" value="Year" style="ellipse;whiteSpace=wrap;html=1;fillStyle=solid;strokeWidth=3;fontFamily=Ubuntu Mono;fontSize=20;fillColor=#E6E6E6;" parent="1" vertex="1">
          <mxGeometry x="180" y="130" width="110" height="50" as="geometry" />
        </mxCell>
        <mxCell id="BA992W2fOOnN_QsH236t-10" style="edgeStyle=none;rounded=0;orthogonalLoop=1;jettySize=auto;html=1;entryX=0.75;entryY=0;entryDx=0;entryDy=0;strokeWidth=2;fontFamily=Ubuntu Mono;fontSize=20;endArrow=none;endFill=0;" parent="1" source="BA992W2fOOnN_QsH236t-3" target="BA992W2fOOnN_QsH236t-1" edge="1">
          <mxGeometry relative="1" as="geometry" />
        </mxCell>
        <mxCell id="BA992W2fOOnN_QsH236t-3" value="ISBN" style="ellipse;whiteSpace=wrap;html=1;fillStyle=solid;strokeWidth=3;fontFamily=Ubuntu Mono;fontSize=20;fillColor=#E6E6E6;fontStyle=0;horizontal=1;verticalAlign=middle;" parent="1" vertex="1">
          <mxGeometry x="360" y="130" width="110" height="50" as="geometry" />
        </mxCell>
        <mxCell id="BA992W2fOOnN_QsH236t-11" value="" style="edgeStyle=none;rounded=0;orthogonalLoop=1;jettySize=auto;html=1;strokeWidth=2;fontFamily=Ubuntu Mono;fontSize=20;endArrow=none;endFill=0;exitX=-0.003;exitY=0.592;exitDx=0;exitDy=0;exitPerimeter=0;" parent="1" source="BA992W2fOOnN_QsH236t-4" target="BA992W2fOOnN_QsH236t-1" edge="1">
          <mxGeometry relative="1" as="geometry" />
        </mxCell>
        <mxCell id="BA992W2fOOnN_QsH236t-4" value="Title" style="ellipse;whiteSpace=wrap;html=1;fillStyle=solid;strokeWidth=3;fontFamily=Ubuntu Mono;fontSize=20;fillColor=#E6E6E6;" parent="1" vertex="1">
          <mxGeometry x="420" y="230" width="110" height="50" as="geometry" />
        </mxCell>
        <mxCell id="BA992W2fOOnN_QsH236t-12" value="" style="edgeStyle=none;rounded=0;orthogonalLoop=1;jettySize=auto;html=1;strokeWidth=2;fontFamily=Ubuntu Mono;fontSize=20;endArrow=none;endFill=0;exitX=0.999;exitY=0.573;exitDx=0;exitDy=0;exitPerimeter=0;" parent="1" source="BA992W2fOOnN_QsH236t-5" target="BA992W2fOOnN_QsH236t-1" edge="1">
          <mxGeometry relative="1" as="geometry" />
        </mxCell>
        <mxCell id="BA992W2fOOnN_QsH236t-5" value="Price" style="ellipse;whiteSpace=wrap;html=1;fillStyle=solid;strokeWidth=3;fontFamily=Ubuntu Mono;fontSize=20;fillColor=#E6E6E6;" parent="1" vertex="1">
          <mxGeometry x="70" y="230" width="110" height="50" as="geometry" />
        </mxCell>
        <mxCell id="BA992W2fOOnN_QsH236t-16" value="" style="edgeStyle=none;rounded=0;orthogonalLoop=1;jettySize=auto;html=1;strokeWidth=2;fontFamily=Ubuntu Mono;fontSize=20;endArrow=none;endFill=0;" parent="1" source="BA992W2fOOnN_QsH236t-37" target="BA992W2fOOnN_QsH236t-1" edge="1">
          <mxGeometry relative="1" as="geometry">
            <mxPoint x="300" y="320" as="sourcePoint" />
          </mxGeometry>
        </mxCell>
        <mxCell id="BA992W2fOOnN_QsH236t-37" value="is&lt;br&gt;a" style="triangle;whiteSpace=wrap;html=1;fillStyle=solid;strokeWidth=3;fontFamily=Ubuntu Mono;fontSize=20;fillColor=#E6E6E6;rotation=90;horizontal=0;verticalAlign=top;" parent="1" vertex="1">
          <mxGeometry x="260" y="320" width="80" height="80" as="geometry" />
        </mxCell>
        <mxCell id="BA992W2fOOnN_QsH236t-40" style="edgeStyle=none;rounded=0;orthogonalLoop=1;jettySize=auto;html=1;strokeWidth=2;fontFamily=Ubuntu Mono;fontSize=19;endArrow=none;endFill=0;" parent="1" source="BA992W2fOOnN_QsH236t-38" target="BA992W2fOOnN_QsH236t-37" edge="1">
          <mxGeometry relative="1" as="geometry" />
        </mxCell>
        <mxCell id="BA992W2fOOnN_QsH236t-38" value="Textbook" style="whiteSpace=wrap;html=1;fontSize=25;fontFamily=Ubuntu Mono;fillColor=#E6E6E6;fillStyle=solid;strokeWidth=3;" parent="1" vertex="1">
          <mxGeometry x="120" y="440" width="120" height="40" as="geometry" />
        </mxCell>
        <mxCell id="BA992W2fOOnN_QsH236t-41" style="edgeStyle=none;rounded=0;orthogonalLoop=1;jettySize=auto;html=1;strokeWidth=2;fontFamily=Ubuntu Mono;fontSize=19;endArrow=none;endFill=0;" parent="1" source="BA992W2fOOnN_QsH236t-39" target="BA992W2fOOnN_QsH236t-37" edge="1">
          <mxGeometry relative="1" as="geometry" />
        </mxCell>
        <mxCell id="BA992W2fOOnN_QsH236t-39" value="Comic" style="whiteSpace=wrap;html=1;fontSize=25;fontFamily=Ubuntu Mono;fillColor=#E6E6E6;fillStyle=solid;strokeWidth=3;" parent="1" vertex="1">
          <mxGeometry x="360" y="440" width="120" height="40" as="geometry" />
        </mxCell>
        <mxCell id="BA992W2fOOnN_QsH236t-44" value="" style="edgeStyle=none;rounded=0;orthogonalLoop=1;jettySize=auto;html=1;strokeWidth=2;fontFamily=Ubuntu Mono;fontSize=19;endArrow=none;endFill=0;" parent="1" source="BA992W2fOOnN_QsH236t-42" target="BA992W2fOOnN_QsH236t-38" edge="1">
          <mxGeometry relative="1" as="geometry" />
        </mxCell>
        <mxCell id="BA992W2fOOnN_QsH236t-42" value="Subject" style="ellipse;whiteSpace=wrap;html=1;fillStyle=solid;strokeWidth=3;fontFamily=Ubuntu Mono;fontSize=20;fillColor=#E6E6E6;" parent="1" vertex="1">
          <mxGeometry x="135" y="510" width="90" height="40" as="geometry" />
        </mxCell>
        <mxCell id="BA992W2fOOnN_QsH236t-45" value="" style="edgeStyle=none;rounded=0;orthogonalLoop=1;jettySize=auto;html=1;strokeWidth=2;fontFamily=Ubuntu Mono;fontSize=19;endArrow=none;endFill=0;" parent="1" source="BA992W2fOOnN_QsH236t-43" target="BA992W2fOOnN_QsH236t-39" edge="1">
          <mxGeometry relative="1" as="geometry" />
        </mxCell>
        <mxCell id="BA992W2fOOnN_QsH236t-43" value="Type" style="ellipse;whiteSpace=wrap;html=1;fillStyle=solid;strokeWidth=3;fontFamily=Ubuntu Mono;fontSize=20;fillColor=#E6E6E6;" parent="1" vertex="1">
          <mxGeometry x="375" y="510" width="90" height="40" as="geometry" />
        </mxCell>
        <mxCell id="63PNek8B7aKTt1bQqC7Q-1" value="d" style="triangle;whiteSpace=wrap;html=1;fillStyle=solid;strokeWidth=3;fontFamily=Ubuntu Mono;fontSize=18;fillColor=#E6E6E6;rotation=90;horizontal=0;verticalAlign=top;" parent="1" vertex="1">
          <mxGeometry x="610" y="320" width="40" height="40" as="geometry" />
        </mxCell>
        <mxCell id="63PNek8B7aKTt1bQqC7Q-4" value="OR" style="whiteSpace=wrap;html=1;fontSize=33;fontFamily=Ubuntu Mono;fillColor=none;fillStyle=solid;strokeWidth=3;strokeColor=none;" parent="1" vertex="1">
          <mxGeometry x="450" y="320" width="60" height="40" as="geometry" />
        </mxCell>
        <mxCell id="63PNek8B7aKTt1bQqC7Q-7" value="" style="endArrow=none;html=1;rounded=0;entryX=0;entryY=0.5;entryDx=0;entryDy=0;strokeWidth=1;endFill=0;startArrow=open;startFill=0;" parent="1" target="63PNek8B7aKTt1bQqC7Q-4" edge="1">
          <mxGeometry width="50" height="50" relative="1" as="geometry">
            <mxPoint x="360" y="340" as="sourcePoint" />
            <mxPoint x="450" y="330" as="targetPoint" />
          </mxGeometry>
        </mxCell>
        <mxCell id="63PNek8B7aKTt1bQqC7Q-9" value="" style="endArrow=openThin;html=1;rounded=0;exitX=1;exitY=0.5;exitDx=0;exitDy=0;endFill=0;" parent="1" source="63PNek8B7aKTt1bQqC7Q-4" edge="1">
          <mxGeometry width="50" height="50" relative="1" as="geometry">
            <mxPoint x="540" y="430" as="sourcePoint" />
            <mxPoint x="600" y="340" as="targetPoint" />
          </mxGeometry>
        </mxCell>
      </root>
    </mxGraphModel>
  </diagram>
</mxfile>
